# xmcd
#
# Track frame offsets:
#	150
#	20777
#	36772
#	57324
#	75860
#	92267
#	127447
#
# Disc length: 2424 seconds
#
# Revision: 0
# Processed by: cddbd v1.5.2PL0 Copyright (c) Steve Scherf et al.
# Submitted via: EasyCDDAExtractor 11.0.0.1
#
DISCID=52097607
DTITLE=ΜΙΚΡΟΥΤΣΙΚΟΣ ΘΑΝΟΣ - ΓΡΑΜΜΕΣ ΤΩΝ ΟΡΙΖΟΝΤΩΝ CD2
DYEAR=2000
DGENRE=ΕΝΤΕΧΝΑ 
TTITLE0=Παπακωνσταντίνου Βασίλης_01 William George Allum
TTITLE1=Παπακωνσταντίνου Βασίλης_02 Ο πιλότος Νάγκελ
TTITLE2=Παπακωνσταντίνου Βασίλης_03 Σταυρός του Νότου
TTITLE3=Παπακωνσταντίνου Βασίλης_04 Cambay's Water
TTITLE4=Παπακωνσταντίνου Βασίλης_05 Πικρία
TTITLE5=Παπακωνσταντίνου Βασίλης_06 Kuro Siwo
TTITLE6=Παπακωνσταντίνου Βασίλης_07 Ένα μαχαίρι
EXTD=
EXTT0=
EXTT1=
EXTT2=
EXTT3=
EXTT4=
EXTT5=
EXTT6=
PLAYORDER=
